<svg width="16" height="16" viewBox="0 0 16 16" fill="none" xmlns="http://www.w3.org/2000/svg">
<path d="M0.5 5.5H15.5V10.5H0.5V5.5Z" fill="white"/>
<path d="M2.5 2H13.5C14.604 2 15.5 2.896 15.5 4V6H0.5V4C0.5 2.896 1.396 2 2.5 2Z" fill="#4D9E4A"/>
<path d="M13.5 14L2.5 14C1.396 14 0.5 13.104 0.5 12V10L15.5 10V12C15.5 13.104 14.604 14 13.5 14Z" fill="#C92A1D"/>
<path opacity="0.15" d="M13.5 2H2.5C1.3955 2 0.5 2.8955 0.5 4V12C0.5 13.1045 1.3955 14 2.5 14H13.5C14.6045 14 15.5 13.1045 15.5 12V4C15.5 2.8955 14.6045 2 13.5 2ZM15 12C15 12.827 14.327 13.5 13.5 13.5H2.5C1.673 13.5 1 12.827 1 12V4C1 3.173 1.673 2.5 2.5 2.5H13.5C14.327 2.5 15 3.173 15 4V12Z" fill="black"/>
<path d="M9.03129 8.40256C9.22629 7.80306 9.04179 7.14556 8.56429 6.73406C9.08329 7.50206 8.89629 8.53956 8.15179 9.08006L8.20379 7.80006V6.79256C8.12329 6.75406 8.05329 6.69556 8.00129 6.62256C7.94929 6.69506 7.87979 6.75356 7.79879 6.79256V7.80006L7.85079 9.08006C7.10629 8.53956 6.91879 7.50206 7.43829 6.73406C6.96029 7.14506 6.77629 7.80306 6.97129 8.40256C7.10279 8.80706 7.38379 9.12106 7.73279 9.30406C7.51929 9.38206 7.29129 9.41756 7.06179 9.40606C7.33129 9.49356 7.60729 9.50356 7.86579 9.44906L7.86779 9.50306L8.00129 9.68656L8.13479 9.50306L8.13679 9.44906C8.39529 9.50356 8.67129 9.49356 8.94079 9.40606C8.71129 9.41706 8.48329 9.38156 8.26979 9.30406C8.61929 9.12106 8.89979 8.80706 9.03129 8.40256Z" fill="#C92A1D"/>
<path d="M9.53816 7.3169C9.36066 7.0099 9.06666 6.7879 8.72266 6.7019C9.47916 7.2709 9.63166 8.3454 9.06266 9.1024C9.06166 9.1039 9.06066 9.1049 9.05966 9.1064C9.68566 8.7444 9.90016 7.9434 9.53816 7.3174V7.3169Z" fill="#C92A1D"/>
<path d="M7.27662 6.70192C6.93262 6.78792 6.63812 7.00992 6.46112 7.31692C6.09912 7.94292 6.31362 8.74392 6.93962 9.10592C6.93862 9.10442 6.93762 9.10342 6.93662 9.10192C6.36762 8.34542 6.52012 7.27042 7.27662 6.70142V6.70192Z" fill="#C92A1D"/>
<path d="M7.65597 6.60748C7.76747 6.68598 7.92197 6.65898 8.00047 6.54748C8.07897 6.65898 8.23347 6.68598 8.34497 6.60748C8.43847 6.54148 8.47497 6.41998 8.43247 6.31348C8.40847 6.44048 8.28647 6.52398 8.15947 6.49998C8.09247 6.48748 8.03447 6.44648 8.00047 6.38748C7.96647 6.44648 7.90847 6.48748 7.84147 6.49998C7.71447 6.52398 7.59247 6.44048 7.56847 6.31348C7.52597 6.41998 7.56197 6.54148 7.65597 6.60748Z" fill="#C92A1D"/>
<path opacity="0.2" d="M13.5 2.5H2.5C1.6715 2.5 1 3.1715 1 4V4.5C1 3.6715 1.6715 3 2.5 3H13.5C14.3285 3 15 3.6715 15 4.5V4C15 3.1715 14.3285 2.5 13.5 2.5Z" fill="white"/>
</svg>
